<svg id="svg" version="1.1" xmlns="http://www.w3.org/2000/svg" xmlns:xlink="http://www.w3.org/1999/xlink" width="400" height="400" viewBox="0, 0, 400,400"><g id="svgg"><path id="path0" d="M189.400 62.442 C 178.510 63.584,174.090 64.334,165.600 66.480 C 158.469 68.283,152.861 70.109,148.504 72.046 C 147.572 72.461,146.722 72.800,146.616 72.800 C 146.061 72.800,137.858 76.717,134.600 78.537 C 128.260 82.081,126.593 83.098,121.800 86.348 C 117.989 88.933,116.211 90.257,112.200 93.495 C 107.005 97.690,99.129 105.334,95.193 110.000 C 93.987 111.430,92.820 112.804,92.600 113.053 C 91.433 114.375,89.245 117.152,88.099 118.767 C 86.028 121.685,80.972 129.342,80.683 130.000 C 80.537 130.330,79.872 131.500,79.204 132.600 C 78.536 133.700,77.680 135.275,77.301 136.100 C 76.922 136.925,76.474 137.600,76.306 137.600 C 76.138 137.600,76.001 137.825,76.003 138.100 C 76.005 138.375,75.305 140.040,74.447 141.800 C 72.602 145.584,71.899 147.173,70.996 149.600 C 70.627 150.590,70.172 151.760,69.984 152.200 C 69.380 153.616,67.304 160.094,66.267 163.800 C 64.703 169.385,63.772 173.972,62.816 180.800 C 62.585 182.450,62.287 184.385,62.154 185.100 L 61.911 186.400 116.555 186.400 L 171.200 186.400 171.200 165.987 C 171.200 144.233,171.201 144.225,173.062 145.746 C 173.468 146.078,177.760 149.532,182.600 153.421 C 187.440 157.311,192.030 161.000,192.800 161.619 C 193.570 162.238,197.620 165.491,201.800 168.846 C 205.980 172.202,209.490 175.049,209.600 175.173 C 209.710 175.298,210.610 176.028,211.600 176.794 C 212.590 177.561,213.670 178.408,214.000 178.675 C 219.179 182.873,236.676 196.889,238.077 197.962 C 240.512 199.827,240.454 200.214,237.386 202.580 C 235.974 203.669,234.404 204.929,233.896 205.380 C 233.389 205.831,232.169 206.828,231.187 207.594 C 230.204 208.361,229.130 209.205,228.800 209.469 C 222.733 214.327,221.369 215.428,221.200 215.601 C 221.090 215.715,218.300 217.954,215.000 220.577 C 211.700 223.200,208.910 225.453,208.800 225.583 C 208.690 225.714,207.790 226.441,206.800 227.200 C 205.810 227.959,204.910 228.684,204.800 228.812 C 204.690 228.940,201.900 231.187,198.600 233.805 C 195.300 236.422,192.510 238.667,192.400 238.792 C 192.290 238.918,191.390 239.641,190.400 240.400 C 189.410 241.159,188.510 241.886,188.400 242.017 C 188.290 242.148,185.500 244.396,182.200 247.014 C 178.900 249.632,176.110 251.874,176.000 251.997 C 175.014 253.100,172.266 254.834,171.792 254.652 C 171.280 254.456,171.200 251.668,171.200 234.013 L 171.200 213.600 116.557 213.600 L 61.913 213.600 62.169 214.618 C 62.309 215.177,62.604 216.932,62.825 218.518 C 64.160 228.123,66.616 237.515,70.795 249.000 C 72.090 252.560,73.606 256.012,75.891 260.600 C 84.404 277.699,96.770 293.725,110.000 304.802 C 111.430 305.999,112.690 307.074,112.800 307.191 C 112.910 307.307,114.080 308.211,115.400 309.200 C 116.720 310.189,117.890 311.104,118.000 311.234 C 118.388 311.692,127.032 317.373,129.400 318.727 C 136.825 322.971,140.327 324.800,141.033 324.800 C 141.345 324.800,141.600 324.980,141.600 325.200 C 141.600 325.420,141.853 325.600,142.162 325.600 C 142.471 325.600,143.506 325.986,144.462 326.457 C 145.418 326.928,146.605 327.468,147.100 327.657 C 147.595 327.846,148.405 328.162,148.900 328.360 C 149.395 328.557,150.430 328.936,151.200 329.200 C 151.970 329.464,152.960 329.836,153.400 330.027 C 153.840 330.217,155.460 330.753,157.000 331.217 C 158.540 331.682,160.250 332.222,160.800 332.418 C 162.676 333.086,171.517 335.191,174.061 335.576 C 175.458 335.787,177.680 336.150,179.000 336.383 C 197.361 339.614,217.971 338.154,240.600 332.020 C 242.126 331.607,245.556 330.463,246.600 330.020 C 247.040 329.834,248.030 329.464,248.800 329.200 C 249.570 328.936,250.605 328.557,251.100 328.360 C 251.595 328.162,252.405 327.842,252.900 327.649 C 256.140 326.385,262.849 323.057,268.200 320.059 C 271.813 318.035,281.506 311.840,282.000 311.241 C 282.110 311.107,283.280 310.189,284.600 309.200 C 285.920 308.211,287.090 307.307,287.200 307.191 C 287.310 307.074,288.570 305.997,290.000 304.796 C 294.734 300.822,302.853 292.465,307.429 286.855 C 307.853 286.336,308.386 285.706,308.613 285.455 C 308.840 285.205,309.462 284.370,309.994 283.600 C 310.526 282.830,311.079 282.110,311.223 282.000 C 311.808 281.552,317.969 271.930,320.059 268.200 C 323.057 262.849,326.385 256.140,327.649 252.900 C 327.842 252.405,328.162 251.595,328.360 251.100 C 328.557 250.605,328.936 249.570,329.200 248.800 C 329.464 248.030,329.834 247.040,330.020 246.600 C 330.463 245.556,331.607 242.126,332.020 240.600 C 335.282 228.569,336.320 223.090,337.402 212.200 C 338.396 202.194,338.012 189.351,336.422 179.400 C 336.211 178.080,335.848 175.830,335.614 174.400 C 335.088 171.173,333.003 162.613,331.961 159.400 C 331.533 158.080,330.994 156.370,330.765 155.600 C 330.535 154.830,330.196 153.840,330.010 153.400 C 329.825 152.960,329.192 151.340,328.603 149.800 C 326.531 144.381,324.224 139.361,321.709 134.800 C 318.474 128.935,317.567 127.409,315.099 123.680 C 308.423 113.594,299.501 103.446,290.400 95.590 C 288.750 94.166,287.310 92.907,287.200 92.793 C 286.717 92.292,279.179 86.773,277.000 85.326 C 270.939 81.300,262.092 76.371,257.100 74.240 C 256.275 73.888,255.015 73.344,254.300 73.031 C 235.540 64.823,208.606 60.429,189.400 62.442 " stroke="none" fill="transparent" fill-rule="evenodd"></path><path id="path1" d="M0.094 158.574 C 0.178 284.796,0.302 317.262,0.700 317.660 C 0.975 317.935,1.200 318.923,1.200 319.856 C 1.200 320.789,1.380 321.664,1.600 321.800 C 1.820 321.936,2.000 322.757,2.000 323.624 C 2.000 324.491,2.180 325.200,2.400 325.200 C 2.620 325.200,2.800 325.819,2.800 326.576 C 2.800 327.333,2.980 328.064,3.200 328.200 C 3.420 328.336,3.600 328.977,3.600 329.624 C 3.600 330.271,3.780 330.800,4.000 330.800 C 4.220 330.800,4.400 331.239,4.400 331.776 C 4.400 332.313,4.580 332.864,4.800 333.000 C 5.020 333.136,5.200 333.787,5.200 334.447 C 5.200 335.145,5.367 335.544,5.600 335.400 C 5.827 335.260,6.000 335.596,6.000 336.176 C 6.000 336.739,6.180 337.200,6.400 337.200 C 6.620 337.200,6.800 337.524,6.800 337.920 C 6.800 338.814,7.694 340.793,8.100 340.797 C 8.265 340.799,8.400 341.149,8.400 341.576 C 8.400 342.003,8.590 342.470,8.821 342.613 C 9.053 342.756,9.173 343.080,9.089 343.333 C 9.005 343.586,9.175 344.032,9.467 344.324 C 9.760 344.617,10.117 345.338,10.261 345.928 C 10.405 346.518,10.630 347.090,10.762 347.200 C 10.893 347.310,11.193 347.760,11.429 348.200 C 13.280 351.650,13.826 352.626,14.001 352.800 C 14.111 352.910,14.456 353.495,14.768 354.100 C 15.080 354.705,15.485 355.200,15.668 355.200 C 15.850 355.200,16.000 355.470,16.000 355.800 C 16.000 356.130,16.180 356.400,16.400 356.400 C 16.620 356.400,16.800 356.670,16.800 357.000 C 16.800 357.330,16.980 357.600,17.200 357.600 C 17.420 357.600,17.600 357.798,17.600 358.040 C 17.600 358.281,18.140 358.983,18.800 359.600 C 19.460 360.217,20.000 360.933,20.000 361.192 C 20.000 361.451,20.720 362.354,21.600 363.200 C 22.480 364.046,23.200 364.943,23.200 365.195 C 23.200 365.446,24.112 366.540,25.227 367.626 C 26.341 368.712,27.171 369.600,27.070 369.600 C 26.796 369.600,30.391 373.158,32.627 375.100 C 33.703 376.035,34.737 376.800,34.924 376.800 C 35.110 376.800,35.954 377.520,36.800 378.400 C 37.646 379.280,38.549 380.000,38.808 380.000 C 39.067 380.000,39.783 380.540,40.400 381.200 C 41.017 381.860,41.719 382.400,41.960 382.400 C 42.202 382.400,42.400 382.580,42.400 382.800 C 42.400 383.020,42.670 383.200,43.000 383.200 C 43.330 383.200,43.600 383.380,43.600 383.600 C 43.600 383.820,43.870 384.000,44.200 384.000 C 44.530 384.000,44.800 384.180,44.800 384.400 C 44.800 384.620,45.036 384.800,45.325 384.800 C 45.613 384.800,46.206 385.115,46.642 385.500 C 47.647 386.388,49.591 387.583,50.500 387.871 C 50.885 387.993,51.200 388.252,51.200 388.447 C 51.200 388.641,51.434 388.800,51.720 388.800 C 52.456 388.800,54.393 389.741,54.397 390.100 C 54.399 390.265,54.642 390.400,54.939 390.400 C 55.440 390.400,57.283 391.157,58.895 392.026 C 59.277 392.232,59.862 392.400,60.195 392.400 C 60.528 392.400,60.800 392.580,60.800 392.800 C 60.800 393.020,61.250 393.200,61.800 393.200 C 62.350 393.200,62.800 393.380,62.800 393.600 C 62.800 393.820,63.160 394.000,63.600 394.000 C 64.040 394.000,64.400 394.180,64.400 394.400 C 64.400 394.620,64.929 394.800,65.576 394.800 C 66.223 394.800,66.864 394.980,67.000 395.200 C 67.136 395.420,67.687 395.600,68.224 395.600 C 68.761 395.600,69.200 395.780,69.200 396.000 C 69.200 396.220,69.920 396.400,70.800 396.400 C 71.680 396.400,72.400 396.580,72.400 396.800 C 72.400 397.020,72.940 397.200,73.600 397.200 C 74.260 397.200,74.800 397.380,74.800 397.600 C 74.800 397.820,75.509 398.000,76.376 398.000 C 77.243 398.000,78.064 398.180,78.200 398.400 C 78.336 398.620,79.322 398.800,80.390 398.800 C 81.589 398.800,82.397 398.991,82.500 399.300 C 82.633 399.699,114.832 399.821,241.339 399.906 L 400.012 400.012 399.906 241.426 C 399.822 115.204,399.698 82.738,399.300 82.340 C 399.025 82.065,398.800 81.077,398.800 80.144 C 398.800 79.211,398.620 78.336,398.400 78.200 C 398.180 78.064,398.000 77.243,398.000 76.376 C 398.000 75.509,397.820 74.800,397.600 74.800 C 397.380 74.800,397.200 74.260,397.200 73.600 C 397.200 72.940,397.020 72.400,396.800 72.400 C 396.580 72.400,396.400 71.680,396.400 70.800 C 396.400 69.920,396.220 69.200,396.000 69.200 C 395.780 69.200,395.600 68.660,395.600 68.000 C 395.600 67.340,395.420 66.800,395.200 66.800 C 394.980 66.800,394.800 66.260,394.800 65.600 C 394.800 64.940,394.620 64.400,394.400 64.400 C 394.180 64.400,394.000 64.040,394.000 63.600 C 394.000 63.160,393.820 62.800,393.600 62.800 C 393.380 62.800,393.200 62.457,393.200 62.038 C 393.200 61.619,392.853 60.584,392.430 59.738 C 390.969 56.820,390.400 55.475,390.400 54.939 C 390.400 54.642,390.220 54.400,390.000 54.400 C 389.780 54.400,389.600 54.040,389.600 53.600 C 389.600 53.160,389.420 52.800,389.200 52.800 C 388.980 52.800,388.800 52.440,388.800 52.000 C 388.800 51.560,388.655 51.200,388.479 51.200 C 388.302 51.200,387.717 50.303,387.179 49.206 C 386.640 48.110,386.065 47.210,385.900 47.206 C 385.735 47.203,385.600 46.930,385.600 46.600 C 385.600 46.270,385.420 46.000,385.200 46.000 C 384.980 46.000,384.800 45.730,384.800 45.400 C 384.800 45.070,384.620 44.800,384.400 44.800 C 384.180 44.800,384.000 44.530,384.000 44.200 C 384.000 43.870,383.820 43.600,383.600 43.600 C 383.380 43.600,383.200 43.330,383.200 43.000 C 383.200 42.670,383.020 42.400,382.800 42.400 C 382.580 42.400,382.400 42.202,382.400 41.960 C 382.400 41.719,381.860 41.017,381.200 40.400 C 380.540 39.783,380.000 39.067,380.000 38.808 C 380.000 38.549,379.280 37.646,378.400 36.800 C 377.520 35.954,376.800 35.110,376.800 34.924 C 376.800 34.450,373.813 31.051,371.269 28.629 C 370.097 27.513,368.346 25.835,367.379 24.900 C 366.412 23.965,365.422 23.200,365.179 23.200 C 364.936 23.200,364.046 22.480,363.200 21.600 C 362.354 20.720,361.451 20.000,361.192 20.000 C 360.933 20.000,360.217 19.460,359.600 18.800 C 358.983 18.140,358.281 17.600,358.040 17.600 C 357.798 17.600,357.600 17.420,357.600 17.200 C 357.600 16.980,357.330 16.800,357.000 16.800 C 356.670 16.800,356.400 16.620,356.400 16.400 C 356.400 16.180,356.212 16.000,355.983 16.000 C 355.754 16.000,355.180 15.640,354.708 15.200 C 354.236 14.760,353.613 14.400,353.325 14.400 C 353.036 14.400,352.800 14.242,352.800 14.049 C 352.800 13.855,352.260 13.473,351.600 13.200 C 350.940 12.927,350.400 12.545,350.400 12.351 C 350.400 12.158,350.166 12.000,349.880 12.000 C 349.144 12.000,347.207 11.059,347.203 10.700 C 347.201 10.535,346.966 10.400,346.680 10.400 C 345.957 10.400,344.007 9.462,344.003 9.113 C 344.001 8.954,343.748 8.922,343.440 9.040 C 343.133 9.158,342.762 9.062,342.617 8.827 C 342.472 8.592,342.003 8.400,341.576 8.400 C 341.149 8.400,340.799 8.265,340.797 8.100 C 340.793 7.694,338.814 6.800,337.920 6.800 C 337.524 6.800,337.200 6.620,337.200 6.400 C 337.200 6.180,336.739 6.000,336.176 6.000 C 335.596 6.000,335.260 5.827,335.400 5.600 C 335.544 5.367,335.145 5.200,334.447 5.200 C 333.787 5.200,333.136 5.020,333.000 4.800 C 332.864 4.580,332.313 4.400,331.776 4.400 C 331.239 4.400,330.800 4.220,330.800 4.000 C 330.800 3.780,330.271 3.600,329.624 3.600 C 328.977 3.600,328.336 3.420,328.200 3.200 C 328.064 2.980,327.333 2.800,326.576 2.800 C 325.819 2.800,325.200 2.620,325.200 2.400 C 325.200 2.180,324.491 2.000,323.624 2.000 C 322.757 2.000,321.936 1.820,321.800 1.600 C 321.664 1.380,320.789 1.200,319.856 1.200 C 318.923 1.200,317.935 0.975,317.660 0.700 C 317.262 0.302,284.796 0.178,158.574 0.094 L -0.012 -0.012 0.094 158.574 M217.400 62.329 C 219.160 62.556,221.590 62.918,222.800 63.134 C 224.010 63.349,226.170 63.730,227.600 63.980 C 232.754 64.882,244.182 68.058,247.900 69.621 C 248.395 69.830,249.250 70.180,249.800 70.400 C 250.350 70.620,251.250 70.980,251.800 71.200 C 252.350 71.420,253.205 71.757,253.700 71.949 C 256.739 73.129,265.076 77.192,267.800 78.822 C 268.900 79.480,270.070 80.134,270.400 80.276 C 270.730 80.418,273.328 82.078,276.174 83.967 C 279.020 85.855,281.622 87.580,281.957 87.800 C 282.292 88.020,282.770 88.380,283.020 88.600 C 283.269 88.820,284.066 89.450,284.790 90.000 C 285.514 90.550,286.426 91.270,286.817 91.600 C 287.208 91.930,288.298 92.830,289.240 93.600 C 294.637 98.013,301.944 105.329,306.409 110.790 C 307.394 111.995,308.380 113.182,308.600 113.427 C 308.820 113.672,309.450 114.470,310.000 115.200 C 310.550 115.930,311.180 116.731,311.400 116.980 C 311.620 117.230,311.980 117.710,312.200 118.047 C 312.420 118.384,314.151 120.987,316.046 123.830 C 317.942 126.674,320.086 130.080,320.811 131.400 C 323.191 135.732,327.115 143.814,327.997 146.200 C 328.160 146.640,328.497 147.495,328.746 148.100 C 328.996 148.705,329.356 149.605,329.546 150.100 C 329.737 150.595,330.089 151.450,330.330 152.000 C 330.570 152.550,331.242 154.440,331.823 156.200 C 332.850 159.313,333.077 160.108,334.727 166.400 C 340.057 186.723,339.761 216.336,334.027 236.500 C 333.792 237.325,333.442 238.585,333.248 239.300 C 332.372 242.538,330.465 247.902,329.553 249.695 C 329.359 250.077,329.200 250.752,329.200 251.195 C 329.200 251.638,329.020 252.000,328.800 252.000 C 328.580 252.000,328.400 252.450,328.400 253.000 C 328.400 253.550,328.220 254.000,328.000 254.000 C 327.780 254.000,327.600 254.253,327.600 254.562 C 327.600 254.871,327.260 255.816,326.845 256.662 C 326.429 257.508,325.307 259.820,324.352 261.800 C 321.269 268.189,313.401 281.107,312.334 281.533 C 312.150 281.607,312.000 281.845,312.000 282.062 C 312.000 282.279,311.775 282.686,311.500 282.965 C 311.225 283.245,310.550 284.070,310.000 284.798 C 306.399 289.571,303.346 293.032,298.189 298.189 C 293.032 303.346,289.571 306.399,284.798 310.000 C 284.070 310.550,283.245 311.225,282.965 311.500 C 282.686 311.775,282.279 312.000,282.062 312.000 C 281.845 312.000,281.607 312.155,281.533 312.344 C 281.117 313.417,268.230 321.263,261.800 324.357 C 259.820 325.310,257.508 326.429,256.662 326.845 C 255.816 327.260,254.871 327.600,254.562 327.600 C 254.253 327.600,254.000 327.780,254.000 328.000 C 254.000 328.220,253.651 328.400,253.224 328.400 C 252.797 328.400,252.336 328.580,252.200 328.800 C 252.064 329.020,251.601 329.200,251.171 329.200 C 250.741 329.200,250.077 329.359,249.695 329.553 C 247.902 330.465,242.538 332.372,239.300 333.248 C 238.585 333.442,237.325 333.792,236.500 334.027 C 221.867 338.188,200.072 339.631,182.000 337.635 C 177.137 337.098,169.747 335.683,164.800 334.342 C 163.150 333.894,161.260 333.386,160.600 333.212 C 158.508 332.662,153.028 330.797,152.305 330.391 C 151.923 330.176,151.336 330.000,151.000 330.000 C 150.664 330.000,150.032 329.820,149.595 329.600 C 149.158 329.380,148.442 329.020,148.005 328.800 C 147.568 328.580,146.938 328.400,146.605 328.400 C 146.272 328.400,146.000 328.220,146.000 328.000 C 146.000 327.780,145.728 327.600,145.395 327.600 C 145.062 327.600,144.477 327.438,144.095 327.240 C 143.713 327.042,141.420 325.923,139.000 324.753 C 132.354 321.540,118.539 313.226,117.200 311.633 C 117.090 311.502,116.341 310.904,115.535 310.304 C 114.729 309.703,113.824 308.984,113.525 308.706 C 113.225 308.428,112.175 307.571,111.190 306.802 C 106.515 303.152,98.473 295.100,93.600 289.191 C 92.610 287.990,91.372 286.519,90.849 285.921 C 89.192 284.028,80.901 271.856,80.276 270.400 C 80.134 270.070,79.480 268.900,78.823 267.800 C 77.652 265.840,73.902 258.360,72.306 254.800 C 71.551 253.116,71.349 252.625,70.454 250.300 C 70.263 249.805,69.910 248.950,69.669 248.400 C 69.038 246.962,66.632 239.531,65.621 235.900 C 63.738 229.136,62.177 221.017,61.738 215.700 L 61.532 213.200 116.766 213.200 L 172.000 213.200 172.000 233.400 C 172.000 246.497,172.140 253.600,172.397 253.600 C 172.615 253.600,173.200 253.257,173.697 252.839 C 174.194 252.420,177.930 249.415,182.000 246.162 C 186.070 242.909,189.490 240.142,189.600 240.013 C 189.710 239.885,190.610 239.159,191.600 238.400 C 192.590 237.641,193.490 236.921,193.600 236.800 C 193.710 236.679,194.610 235.959,195.600 235.200 C 196.590 234.441,197.490 233.726,197.600 233.610 C 197.710 233.495,198.700 232.684,199.800 231.808 C 200.900 230.933,202.005 230.033,202.255 229.808 C 202.505 229.584,204.013 228.410,205.606 227.200 C 207.199 225.990,208.885 224.640,209.351 224.199 C 209.818 223.758,211.010 222.773,212.000 222.009 C 212.990 221.246,213.890 220.523,214.000 220.405 C 214.110 220.286,216.000 218.751,218.200 216.994 C 220.400 215.237,222.290 213.701,222.400 213.581 C 222.510 213.460,223.230 212.929,224.000 212.400 C 224.770 211.871,225.670 211.157,226.000 210.815 C 226.330 210.472,227.230 209.719,228.000 209.141 C 228.770 208.563,229.790 207.755,230.266 207.345 C 231.258 206.492,231.492 206.299,235.700 202.873 C 237.405 201.485,238.800 200.192,238.800 200.000 C 238.800 199.808,237.405 198.519,235.700 197.135 C 233.995 195.750,232.404 194.434,232.163 194.209 C 231.923 193.984,231.126 193.350,230.392 192.800 C 228.852 191.646,226.692 189.912,226.400 189.596 C 226.290 189.477,225.390 188.759,224.400 188.000 C 223.410 187.241,222.510 186.525,222.400 186.408 C 222.290 186.290,220.400 184.767,218.200 183.021 C 216.000 181.276,214.110 179.746,214.000 179.622 C 213.890 179.497,213.170 178.926,212.400 178.353 C 211.630 177.779,210.396 176.745,209.658 176.055 C 208.919 175.365,208.198 174.800,208.054 174.800 C 207.910 174.800,207.344 174.393,206.796 173.896 C 206.248 173.399,204.990 172.368,204.000 171.606 C 203.010 170.844,202.110 170.125,202.000 170.008 C 201.890 169.890,200.000 168.367,197.800 166.621 C 195.600 164.876,193.710 163.347,193.600 163.224 C 193.490 163.101,192.590 162.372,191.600 161.606 C 189.851 160.251,189.099 159.645,187.620 158.400 C 187.227 158.070,186.315 157.350,185.591 156.800 C 184.053 155.631,179.444 151.903,178.000 150.661 C 177.450 150.187,176.190 149.171,175.200 148.403 C 174.210 147.635,173.340 146.870,173.267 146.703 C 173.193 146.536,172.880 146.400,172.570 146.400 C 172.095 146.400,171.991 149.564,171.904 166.700 L 171.800 187.000 116.800 187.000 L 61.800 187.000 61.845 184.000 C 61.886 181.182,62.316 177.767,63.151 173.600 C 64.192 168.410,64.513 167.044,65.642 163.000 C 66.317 160.580,67.114 157.880,67.413 157.000 C 68.626 153.424,69.484 151.183,69.735 150.932 C 69.881 150.786,70.000 150.425,70.000 150.129 C 70.000 149.583,71.050 147.055,72.437 144.262 C 72.856 143.416,73.200 142.471,73.200 142.162 C 73.200 141.853,73.380 141.600,73.600 141.600 C 73.820 141.600,74.000 141.347,74.000 141.038 C 74.000 140.499,75.564 137.215,76.019 136.800 C 76.139 136.690,76.731 135.610,77.335 134.400 C 78.506 132.052,79.359 130.527,80.581 128.600 C 84.093 123.060,85.267 121.324,87.748 118.000 C 89.309 115.910,90.681 114.110,90.798 114.000 C 90.915 113.890,91.819 112.814,92.805 111.609 C 97.456 105.933,107.839 95.627,111.268 93.283 C 111.781 92.933,112.290 92.543,112.400 92.417 C 112.675 92.101,114.808 90.384,116.229 89.335 C 116.873 88.859,118.210 87.861,119.200 87.118 C 122.278 84.806,131.988 78.812,132.667 78.805 C 132.923 78.802,133.193 78.663,133.267 78.495 C 133.445 78.086,141.665 73.994,142.300 73.997 C 142.575 73.999,142.800 73.820,142.800 73.600 C 142.800 73.380,143.042 73.200,143.339 73.200 C 143.635 73.200,144.400 72.950,145.039 72.644 C 152.348 69.142,165.959 65.016,174.800 63.621 C 176.450 63.360,178.451 62.979,179.246 62.774 C 180.042 62.568,181.752 62.387,183.046 62.372 C 184.341 62.356,185.760 62.186,186.200 61.992 C 187.267 61.523,213.334 61.805,217.400 62.329 " stroke="none" fill="hsl(35, 100%, 55%)" fill-rule="evenodd"></path><path id="path2" d="M190.505 61.887 C 191.114 61.979,192.014 61.977,192.505 61.882 C 192.997 61.787,192.500 61.711,191.400 61.714 C 190.300 61.717,189.897 61.795,190.505 61.887 M207.705 61.887 C 208.314 61.979,209.214 61.977,209.705 61.882 C 210.197 61.787,209.700 61.711,208.600 61.714 C 207.500 61.717,207.097 61.795,207.705 61.887 M222.433 63.344 C 222.525 63.423,223.140 63.608,223.800 63.756 C 224.676 63.952,224.838 63.915,224.400 63.618 C 223.860 63.253,222.032 62.998,222.433 63.344 M109.775 94.900 L 108.600 96.200 109.900 95.025 C 111.112 93.930,111.384 93.600,111.075 93.600 C 111.006 93.600,110.421 94.185,109.775 94.900 M298.200 102.400 C 299.506 103.720,300.665 104.800,300.775 104.800 C 300.885 104.800,299.906 103.720,298.600 102.400 C 297.294 101.080,296.135 100.000,296.025 100.000 C 295.915 100.000,296.894 101.080,298.200 102.400 M101.381 102.500 L 99.800 104.200 101.500 102.619 C 103.081 101.148,103.384 100.800,103.081 100.800 C 103.016 100.800,102.251 101.565,101.381 102.500 M95.375 108.900 L 94.200 110.200 95.500 109.025 C 96.215 108.379,96.800 107.794,96.800 107.725 C 96.800 107.416,96.470 107.688,95.375 108.900 M313.200 120.400 C 313.670 121.060,314.144 121.600,314.254 121.600 C 314.364 121.600,314.070 121.060,313.600 120.400 C 313.130 119.740,312.656 119.200,312.546 119.200 C 312.436 119.200,312.730 119.740,313.200 120.400 M171.786 166.400 C 171.786 177.510,171.837 182.055,171.900 176.500 C 171.962 170.945,171.962 161.855,171.900 156.300 C 171.837 150.745,171.786 155.290,171.786 166.400 M62.600 177.200 C 62.448 177.891,62.407 178.541,62.509 178.642 C 62.611 178.744,62.809 178.253,62.950 177.550 C 63.283 175.883,62.960 175.560,62.600 177.200 M338.101 190.600 C 338.105 191.480,338.187 191.793,338.283 191.295 C 338.379 190.798,338.375 190.078,338.275 189.695 C 338.175 189.313,338.096 189.720,338.101 190.600 M238.577 199.100 C 239.306 199.979,239.306 200.021,238.577 200.900 L 237.830 201.800 238.804 200.900 L 239.778 200.000 238.804 199.100 L 237.830 198.200 238.577 199.100 M338.101 209.400 C 338.105 210.280,338.187 210.593,338.283 210.095 C 338.379 209.598,338.375 208.878,338.275 208.495 C 338.175 208.113,338.096 208.520,338.101 209.400 M171.600 233.520 L 171.800 253.800 171.904 233.824 C 171.961 222.837,171.871 213.711,171.704 213.544 C 171.537 213.376,171.490 222.366,171.600 233.520 M192.200 238.244 L 190.600 239.676 192.300 238.404 C 193.763 237.310,194.291 236.783,193.900 236.806 C 193.845 236.809,193.080 237.456,192.200 238.244 M95.200 290.925 C 95.200 290.994,95.785 291.579,96.500 292.225 L 97.800 293.400 96.625 292.100 C 95.530 290.888,95.200 290.616,95.200 290.925 M297.789 298.100 L 295.000 301.000 297.900 298.211 C 300.594 295.620,300.983 295.200,300.689 295.200 C 300.628 295.200,299.323 296.505,297.789 298.100 M102.200 298.400 C 103.506 299.720,104.665 300.800,104.775 300.800 C 104.885 300.800,103.906 299.720,102.600 298.400 C 101.294 297.080,100.135 296.000,100.025 296.000 C 99.915 296.000,100.894 297.080,102.200 298.400 M167.400 334.800 C 167.840 334.989,168.470 335.144,168.800 335.144 C 169.178 335.144,169.104 335.017,168.600 334.800 C 168.160 334.611,167.530 334.456,167.200 334.456 C 166.822 334.456,166.896 334.583,167.400 334.800 M189.900 338.282 C 190.395 338.378,191.205 338.378,191.700 338.282 C 192.195 338.187,191.790 338.109,190.800 338.109 C 189.810 338.109,189.405 338.187,189.900 338.282 M208.705 338.283 C 209.202 338.379,209.922 338.375,210.305 338.275 C 210.687 338.175,210.280 338.096,209.400 338.101 C 208.520 338.105,208.207 338.187,208.705 338.283 " stroke="none" fill="#59c9fc" fill-rule="evenodd"></path><path id="path3" d="M196.500 61.898 C 198.425 61.971,201.575 61.971,203.500 61.898 C 205.425 61.825,203.850 61.765,200.000 61.765 C 196.150 61.765,194.575 61.825,196.500 61.898 M187.400 62.258 C 181.919 62.681,173.504 64.091,167.400 65.610 C 165.860 65.993,164.084 66.426,163.453 66.573 C 162.822 66.719,162.397 66.930,162.509 67.042 C 162.620 67.153,164.396 66.810,166.456 66.280 C 173.797 64.387,178.747 63.559,189.400 62.442 C 192.405 62.127,190.897 61.988,187.400 62.258 M211.200 62.446 C 220.988 63.495,229.639 64.994,235.373 66.635 C 237.463 67.234,238.276 67.343,237.910 66.976 C 236.775 65.841,218.666 62.597,211.600 62.262 L 207.800 62.082 211.200 62.446 M160.000 67.618 C 159.562 67.915,159.724 67.952,160.600 67.756 C 162.071 67.427,162.390 67.198,161.367 67.206 C 160.945 67.209,160.330 67.395,160.000 67.618 M239.000 67.600 C 240.196 68.114,241.195 68.114,240.400 67.600 C 240.070 67.387,239.440 67.222,239.000 67.234 L 238.200 67.256 239.000 67.600 M154.800 69.200 C 154.267 69.545,154.267 69.588,154.800 69.588 C 155.130 69.588,155.670 69.413,156.000 69.200 C 156.533 68.855,156.533 68.812,156.000 68.812 C 155.670 68.812,155.130 68.987,154.800 69.200 M244.000 69.200 C 244.330 69.413,244.870 69.588,245.200 69.588 C 245.733 69.588,245.733 69.545,245.200 69.200 C 244.870 68.987,244.330 68.812,244.000 68.812 C 243.467 68.812,243.467 68.855,244.000 69.200 M246.400 70.000 C 246.730 70.213,247.270 70.388,247.600 70.388 C 248.133 70.388,248.133 70.345,247.600 70.000 C 247.270 69.787,246.730 69.612,246.400 69.612 C 245.867 69.612,245.867 69.655,246.400 70.000 M147.600 72.000 C 146.830 72.422,146.313 72.774,146.451 72.783 C 146.865 72.811,149.600 71.605,149.600 71.395 C 149.600 71.046,149.025 71.220,147.600 72.000 M142.000 74.400 C 141.230 74.822,140.713 75.174,140.851 75.183 C 141.265 75.211,144.000 74.005,144.000 73.795 C 144.000 73.446,143.425 73.620,142.000 74.400 M261.800 76.285 C 262.020 76.511,263.640 77.468,265.400 78.413 C 269.004 80.347,273.436 82.975,277.000 85.292 C 278.419 86.214,278.910 86.428,278.200 85.814 C 277.114 84.875,273.260 82.405,269.600 80.303 C 266.396 78.463,261.429 75.904,261.800 76.285 M133.800 78.544 C 128.045 81.645,118.394 87.839,117.786 88.823 C 117.634 89.068,119.465 87.941,121.855 86.317 C 124.245 84.693,126.920 82.943,127.800 82.428 C 130.647 80.761,132.157 79.905,134.400 78.687 C 136.433 77.583,137.614 76.785,137.180 76.810 C 137.081 76.816,135.560 77.596,133.800 78.544 M280.800 87.747 C 280.800 87.926,285.245 91.380,286.216 91.954 C 286.444 92.089,286.084 91.710,285.416 91.112 C 283.867 89.725,280.800 87.489,280.800 87.747 M114.993 90.834 C 112.521 92.862,111.815 93.598,113.400 92.494 C 114.928 91.430,117.465 89.238,117.193 89.216 C 117.079 89.207,116.089 89.936,114.993 90.834 M287.219 92.671 C 287.230 92.852,288.242 93.810,289.468 94.800 C 295.133 99.375,304.707 109.470,309.858 116.300 C 311.061 117.895,312.146 119.200,312.270 119.200 C 313.017 119.200,304.493 108.925,299.287 103.551 C 294.506 98.615,287.180 92.011,287.219 92.671 M111.410 93.584 C 111.261 93.824,110.064 94.916,108.749 96.010 C 107.434 97.105,106.477 98.000,106.621 98.000 C 106.766 98.000,107.450 97.526,108.142 96.948 C 111.108 94.466,112.072 93.538,111.882 93.349 C 111.771 93.238,111.559 93.343,111.410 93.584 M100.758 103.501 C 95.849 108.551,93.579 111.126,90.619 115.000 C 89.031 117.078,90.531 115.645,92.564 113.141 C 95.435 109.607,97.949 106.827,101.828 102.900 C 104.273 100.425,106.147 98.400,105.994 98.400 C 105.841 98.400,103.485 100.695,100.758 103.501 M87.336 119.300 C 85.405 121.900,84.317 123.600,84.585 123.600 C 84.697 123.600,85.196 122.991,85.694 122.247 C 86.192 121.503,87.194 120.063,87.919 119.047 C 89.735 116.505,89.259 116.711,87.336 119.300 M315.175 123.808 C 317.925 128.030,318.551 128.584,316.239 124.749 C 315.227 123.070,314.106 121.454,313.747 121.156 C 313.389 120.859,314.031 122.052,315.175 123.808 M82.548 126.300 C 79.312 131.340,75.850 137.600,76.299 137.600 C 76.471 137.600,76.922 136.925,77.301 136.100 C 77.680 135.275,78.468 133.790,79.052 132.800 C 79.636 131.810,80.420 130.460,80.795 129.800 C 81.171 129.140,82.141 127.565,82.951 126.300 C 83.762 125.035,84.335 124.000,84.225 124.000 C 84.115 124.000,83.360 125.035,82.548 126.300 M319.078 130.000 C 319.742 131.210,320.965 133.460,321.797 135.000 C 322.628 136.540,323.492 137.980,323.717 138.200 C 323.942 138.420,323.310 137.070,322.313 135.200 C 319.515 129.949,318.760 128.633,318.297 128.200 C 318.062 127.980,318.413 128.790,319.078 130.000 M75.055 139.455 C 74.676 140.249,74.448 140.981,74.549 141.082 C 74.649 141.183,75.041 140.614,75.418 139.818 C 75.796 139.022,76.023 138.290,75.924 138.191 C 75.825 138.091,75.433 138.660,75.055 139.455 M324.800 140.672 C 324.800 141.169,325.991 143.600,326.235 143.600 C 326.423 143.600,325.300 140.767,324.987 140.454 C 324.884 140.351,324.800 140.449,324.800 140.672 M171.467 145.467 C 171.320 145.613,171.200 154.883,171.200 166.067 L 171.200 186.400 116.629 186.400 C 68.159 186.400,62.038 186.332,61.870 185.792 C 61.738 185.367,61.701 185.397,61.746 185.892 C 61.808 186.565,64.526 186.605,116.705 186.701 L 171.600 186.803 171.600 166.630 C 171.600 148.824,171.674 146.383,172.229 145.829 C 172.737 145.320,172.749 145.200,172.295 145.200 C 171.986 145.200,171.613 145.320,171.467 145.467 M173.600 146.501 C 174.640 147.598,193.201 162.366,193.177 162.076 C 193.164 161.924,189.110 158.560,184.168 154.600 C 175.047 147.291,172.499 145.338,173.600 146.501 M327.396 146.700 C 327.551 147.085,328.047 148.349,328.497 149.508 C 328.948 150.668,329.389 151.544,329.476 151.457 C 329.674 151.259,327.591 146.000,327.315 146.000 C 327.205 146.000,327.241 146.315,327.396 146.700 M69.000 153.600 C 68.850 154.073,68.817 154.550,68.927 154.660 C 69.037 154.770,69.250 154.473,69.400 154.000 C 69.550 153.527,69.583 153.050,69.473 152.940 C 69.363 152.830,69.150 153.127,69.000 153.600 M68.200 156.000 C 68.050 156.473,68.017 156.950,68.127 157.060 C 68.237 157.170,68.450 156.873,68.600 156.400 C 68.750 155.927,68.783 155.450,68.673 155.340 C 68.563 155.230,68.350 155.527,68.200 156.000 M331.212 157.200 C 331.212 157.530,331.387 158.070,331.600 158.400 C 331.945 158.933,331.988 158.933,331.988 158.400 C 331.988 158.070,331.813 157.530,331.600 157.200 C 331.255 156.667,331.212 156.667,331.212 157.200 M67.400 158.400 C 67.250 158.873,67.217 159.350,67.327 159.460 C 67.437 159.570,67.650 159.273,67.800 158.800 C 67.950 158.327,67.983 157.850,67.873 157.740 C 67.763 157.630,67.550 157.927,67.400 158.400 M332.012 159.600 C 332.012 159.930,332.187 160.470,332.400 160.800 C 332.745 161.333,332.788 161.333,332.788 160.800 C 332.788 160.470,332.613 159.930,332.400 159.600 C 332.055 159.067,332.012 159.067,332.012 159.600 M65.858 163.901 C 64.238 169.758,63.345 174.117,62.396 180.800 C 61.993 183.636,61.910 185.027,62.161 184.767 C 62.249 184.675,62.526 183.070,62.777 181.200 C 63.708 174.250,64.676 169.440,66.266 163.870 C 66.821 161.929,67.198 160.265,67.105 160.172 C 67.012 160.079,66.451 161.757,65.858 163.901 M332.834 162.400 C 332.846 162.730,333.011 163.360,333.200 163.800 L 333.544 164.600 333.566 163.800 C 333.578 163.360,333.413 162.730,333.200 162.400 C 332.855 161.867,332.815 161.867,332.834 162.400 M193.600 162.531 C 193.600 162.784,209.120 175.200,209.436 175.200 C 209.575 175.200,206.563 172.667,202.744 169.572 C 195.374 163.599,193.600 162.232,193.600 162.531 M333.668 165.200 C 333.688 166.239,334.318 167.946,334.332 167.000 C 334.338 166.560,334.189 165.840,334.000 165.400 C 333.789 164.910,333.661 164.832,333.668 165.200 M334.456 168.600 C 334.456 169.040,334.611 169.760,334.800 170.200 L 335.144 171.000 335.144 170.200 C 335.144 169.760,334.989 169.040,334.800 168.600 L 334.456 167.800 334.456 168.600 M335.399 173.400 C 335.550 174.500,335.819 176.030,335.998 176.800 C 336.177 177.570,336.524 179.910,336.770 182.000 C 337.414 187.481,337.586 188.245,337.355 184.600 C 337.161 181.535,336.981 180.123,336.061 174.458 C 335.570 171.429,335.006 170.528,335.399 173.400 M211.600 177.108 C 212.590 177.994,213.477 178.645,213.571 178.555 C 213.748 178.386,213.057 177.791,211.000 176.342 C 210.340 175.878,210.610 176.222,211.600 177.108 M214.000 178.901 C 214.000 179.010,219.760 183.729,226.800 189.388 C 233.840 195.046,239.600 199.818,239.600 199.992 C 239.600 200.307,229.417 208.591,208.119 225.600 C 201.921 230.550,196.839 234.743,196.825 234.918 C 196.804 235.186,204.210 229.521,204.800 228.818 C 204.910 228.687,205.810 227.959,206.800 227.200 C 207.790 226.441,208.690 225.714,208.800 225.583 C 208.910 225.453,211.700 223.200,215.000 220.577 C 218.300 217.954,221.090 215.715,221.200 215.601 C 221.369 215.428,222.733 214.327,228.800 209.469 C 229.130 209.205,230.204 208.361,231.187 207.594 C 232.169 206.828,233.389 205.831,233.896 205.380 C 234.404 204.929,235.974 203.669,237.386 202.580 C 240.454 200.214,240.512 199.827,238.077 197.963 C 237.045 197.173,231.430 192.692,225.600 188.004 C 212.958 177.839,214.000 178.657,214.000 178.901 M337.800 200.000 C 337.800 206.490,337.917 210.810,338.060 209.600 C 338.204 208.390,338.321 204.070,338.321 200.000 C 338.321 195.930,338.204 191.610,338.060 190.400 C 337.917 189.190,337.800 193.510,337.800 200.000 M337.260 213.835 C 337.204 215.366,336.600 219.624,335.598 225.550 C 335.360 226.952,335.252 228.186,335.357 228.291 C 335.462 228.396,335.656 227.788,335.786 226.941 C 335.917 226.093,336.195 224.500,336.403 223.400 C 337.143 219.493,337.683 214.583,337.503 213.400 C 337.348 212.385,337.311 212.452,337.260 213.835 M61.784 213.625 C 61.639 213.861,61.628 214.161,61.760 214.293 C 61.892 214.425,62.000 214.323,62.000 214.067 C 62.000 213.713,75.267 213.600,116.600 213.600 L 171.200 213.600 171.200 234.013 C 171.200 251.369,171.286 254.458,171.774 254.645 C 172.347 254.865,175.955 252.490,175.984 251.873 C 175.993 251.693,175.185 252.214,174.190 253.030 C 173.194 253.846,172.249 254.383,172.090 254.223 C 171.930 254.064,171.710 244.814,171.600 233.667 L 171.400 213.400 116.724 213.299 C 78.216 213.227,61.971 213.324,61.784 213.625 M62.188 217.000 C 62.593 220.659,64.256 229.052,65.478 233.600 C 65.803 234.810,66.218 236.399,66.400 237.132 C 66.727 238.451,67.200 239.289,67.200 238.549 C 67.200 238.338,66.763 236.643,66.228 234.783 C 64.794 229.791,63.555 223.819,62.788 218.210 C 62.276 214.462,61.802 213.506,62.188 217.000 M334.600 230.400 C 334.448 231.091,334.414 231.747,334.524 231.857 C 334.634 231.967,334.848 231.491,335.000 230.800 C 335.152 230.109,335.186 229.453,335.076 229.343 C 334.966 229.233,334.752 229.709,334.600 230.400 M334.049 232.800 C 334.016 233.130,333.889 233.850,333.767 234.400 C 333.575 235.264,333.607 235.303,333.999 234.688 C 334.248 234.297,334.375 233.577,334.281 233.088 C 334.186 232.600,334.082 232.470,334.049 232.800 M194.400 236.837 L 192.600 238.471 194.294 237.207 C 195.787 236.092,196.692 235.198,196.324 235.201 C 196.256 235.202,195.390 235.938,194.400 236.837 M333.029 236.629 C 332.881 237.215,332.851 237.784,332.961 237.894 C 333.071 238.004,333.281 237.615,333.429 237.029 C 333.576 236.442,333.606 235.873,333.496 235.763 C 333.386 235.653,333.176 236.042,333.029 236.629 M190.384 240.053 L 188.600 241.671 190.400 240.359 C 191.390 239.636,192.275 238.990,192.367 238.923 C 192.458 238.855,192.451 238.718,192.350 238.617 C 192.250 238.516,191.365 239.162,190.384 240.053 M332.200 239.600 C 332.050 240.073,332.017 240.550,332.127 240.660 C 332.237 240.770,332.450 240.473,332.600 240.000 C 332.750 239.527,332.783 239.050,332.673 238.940 C 332.563 238.830,332.350 239.127,332.200 239.600 M184.161 244.944 C 180.449 247.936,175.727 252.001,177.180 250.953 C 177.633 250.627,186.892 243.328,188.367 242.135 C 188.458 242.061,188.458 241.930,188.367 241.844 C 188.275 241.759,186.382 243.154,184.161 244.944 M69.659 246.800 C 69.659 247.130,69.993 248.120,70.400 249.000 C 70.807 249.880,71.141 250.330,71.141 250.000 C 71.141 249.670,70.807 248.680,70.400 247.800 C 69.993 246.920,69.659 246.470,69.659 246.800 M325.429 257.661 C 324.836 258.851,324.576 259.957,324.987 259.546 C 325.300 259.233,326.423 256.400,326.235 256.400 C 326.138 256.400,325.775 256.968,325.429 257.661 M322.100 264.500 C 321.237 266.095,319.932 268.480,319.200 269.800 C 318.469 271.120,318.062 272.020,318.297 271.800 C 318.742 271.383,319.310 270.401,322.287 264.900 C 323.269 263.085,323.982 261.600,323.871 261.600 C 323.760 261.600,322.963 262.905,322.100 264.500 M77.809 265.102 C 78.425 266.258,78.999 267.134,79.084 267.049 C 79.270 266.863,77.701 263.968,77.106 263.400 C 76.876 263.180,77.192 263.946,77.809 265.102 M79.584 268.369 C 80.759 270.566,84.117 275.878,84.660 276.400 C 85.003 276.730,84.492 275.740,83.524 274.200 C 82.556 272.660,81.270 270.545,80.665 269.500 C 79.620 267.693,78.716 266.748,79.584 268.369 M316.544 274.100 C 315.958 275.035,314.779 276.835,313.924 278.100 C 313.070 279.365,312.452 280.400,312.551 280.400 C 312.836 280.400,315.388 276.810,316.745 274.500 C 318.220 271.991,318.062 271.678,316.544 274.100 M85.877 278.431 C 86.275 279.108,86.856 279.873,87.168 280.131 C 87.480 280.389,87.232 279.835,86.615 278.900 C 85.320 276.937,84.809 276.612,85.877 278.431 M88.636 282.300 C 96.269 292.424,105.902 302.352,114.550 309.007 C 115.403 309.663,116.528 310.530,117.050 310.933 C 117.573 311.337,117.991 311.517,117.981 311.333 C 117.970 311.150,116.952 310.280,115.718 309.400 C 114.484 308.520,113.278 307.617,113.037 307.394 C 112.797 307.171,111.430 306.007,110.000 304.807 C 103.986 299.761,94.459 289.577,89.609 283.012 C 88.710 281.795,87.869 280.800,87.740 280.800 C 87.611 280.800,88.014 281.475,88.636 282.300 M310.096 283.405 C 308.932 285.203,309.200 285.200,310.573 283.400 C 311.160 282.630,311.497 282.002,311.320 282.005 C 311.144 282.008,310.593 282.638,310.096 283.405 M308.400 285.525 C 308.400 285.703,308.083 286.198,307.697 286.625 C 307.310 287.051,306.008 288.570,304.803 290.000 C 301.976 293.356,293.344 301.988,290.000 304.801 C 288.570 306.004,287.203 307.171,286.963 307.394 C 286.722 307.617,285.516 308.520,284.282 309.400 C 283.048 310.280,282.030 311.143,282.019 311.318 C 281.998 311.666,288.044 307.088,290.600 304.820 C 294.696 301.185,301.219 294.613,304.515 290.800 C 309.633 284.879,309.384 285.200,308.862 285.200 C 308.608 285.200,308.400 285.346,308.400 285.525 M119.774 312.757 C 120.068 313.233,123.555 315.638,126.200 317.190 C 128.786 318.706,127.294 317.502,123.249 314.809 C 121.185 313.435,119.622 312.511,119.774 312.757 M276.522 314.930 C 272.182 317.845,271.332 318.593,274.400 316.798 C 276.724 315.439,280.400 312.846,280.400 312.566 C 280.400 312.321,280.490 312.266,276.522 314.930 M128.716 318.675 C 129.750 319.524,137.221 323.539,136.600 322.912 C 136.230 322.537,135.109 321.895,129.800 319.010 C 128.617 318.367,128.175 318.230,128.716 318.675 M266.867 320.779 C 264.154 322.294,261.814 323.666,261.667 323.829 C 261.306 324.230,270.023 319.577,271.237 318.721 C 273.070 317.428,271.778 318.037,266.867 320.779 M137.811 323.734 C 138.696 324.332,140.000 324.858,140.000 324.617 C 140.000 324.437,137.598 323.200,137.250 323.200 C 137.124 323.200,137.377 323.440,137.811 323.734 M257.693 325.380 C 256.100 326.260,256.148 326.506,257.779 325.829 C 258.648 325.469,259.443 325.090,259.546 324.987 C 259.926 324.608,258.571 324.894,257.693 325.380 M142.054 325.787 C 142.367 326.100,145.200 327.223,145.200 327.035 C 145.200 326.791,142.769 325.600,142.272 325.600 C 142.049 325.600,141.951 325.684,142.054 325.787 M154.400 330.800 C 154.730 331.013,155.270 331.188,155.600 331.188 C 156.133 331.188,156.133 331.145,155.600 330.800 C 155.270 330.587,154.730 330.412,154.400 330.412 C 153.867 330.412,153.867 330.455,154.400 330.800 M159.600 332.400 C 159.930 332.613,160.470 332.788,160.800 332.788 C 161.333 332.788,161.333 332.745,160.800 332.400 C 160.470 332.187,159.930 332.012,159.600 332.012 C 159.067 332.012,159.067 332.055,159.600 332.400 M239.200 332.400 C 238.667 332.745,238.667 332.788,239.200 332.788 C 239.530 332.788,240.070 332.613,240.400 332.400 C 240.933 332.055,240.933 332.012,240.400 332.012 C 240.070 332.012,239.530 332.187,239.200 332.400 M162.200 333.200 C 162.640 333.389,163.360 333.538,163.800 333.532 C 164.443 333.523,164.404 333.457,163.600 333.200 C 162.232 332.762,161.181 332.762,162.200 333.200 M236.200 333.200 L 235.400 333.544 236.200 333.566 C 236.640 333.578,237.270 333.413,237.600 333.200 C 238.395 332.686,237.396 332.686,236.200 333.200 M165.200 334.000 C 165.530 334.213,166.250 334.373,166.800 334.354 L 167.800 334.320 166.800 334.000 C 165.258 333.506,164.436 333.506,165.200 334.000 M233.200 334.000 L 232.200 334.320 233.200 334.354 C 233.750 334.373,234.470 334.213,234.800 334.000 C 235.564 333.506,234.742 333.506,233.200 334.000 M168.600 334.800 C 169.040 334.989,169.760 335.138,170.200 335.132 C 170.843 335.123,170.804 335.057,170.000 334.800 C 168.632 334.362,167.581 334.362,168.600 334.800 M229.800 334.800 L 229.000 335.144 229.800 335.144 C 230.240 335.144,230.960 334.989,231.400 334.800 L 232.200 334.456 231.400 334.456 C 230.960 334.456,230.240 334.611,229.800 334.800 M172.600 335.610 C 174.861 336.239,179.482 336.906,180.041 336.685 C 180.348 336.563,180.060 336.448,179.400 336.429 C 178.740 336.411,177.570 336.234,176.800 336.037 C 174.900 335.550,170.937 335.147,172.600 335.610 M225.400 335.616 C 223.653 335.969,215.842 337.104,213.600 337.331 C 212.564 337.435,212.728 337.489,214.233 337.536 C 215.352 337.571,217.242 337.431,218.433 337.224 C 219.625 337.017,221.950 336.635,223.600 336.375 C 227.439 335.769,229.458 335.268,228.000 335.282 C 227.450 335.288,226.280 335.438,225.400 335.616 M181.800 337.191 C 183.000 337.505,187.881 337.729,187.567 337.455 C 187.475 337.375,185.870 337.213,184.000 337.094 C 182.044 336.969,181.110 337.010,181.800 337.191 M190.400 338.053 C 193.824 338.387,206.803 338.392,209.600 338.060 C 210.810 337.917,206.400 337.800,199.800 337.800 C 193.200 337.800,188.970 337.914,190.400 338.053 " stroke="none" fill="#99defc" fill-rule="evenodd"></path><path id="path4" d="M186.200 62.003 C 185.685 62.226,186.113 62.267,187.400 62.118 C 188.500 61.991,189.475 61.823,189.567 61.744 C 189.914 61.445,186.964 61.672,186.200 62.003 M210.433 61.746 C 210.525 61.826,211.590 62.000,212.800 62.132 C 214.237 62.288,214.722 62.248,214.200 62.014 C 213.443 61.675,210.079 61.436,210.433 61.746 M179.400 62.800 C 178.381 63.238,179.432 63.238,180.800 62.800 C 181.604 62.543,181.643 62.477,181.000 62.468 C 180.560 62.462,179.840 62.611,179.400 62.800 M219.200 62.800 C 219.750 62.976,220.560 63.120,221.000 63.120 C 221.633 63.120,221.592 63.054,220.800 62.800 C 220.250 62.624,219.440 62.480,219.000 62.480 C 218.367 62.480,218.408 62.546,219.200 62.800 M170.400 64.400 C 169.596 64.657,169.557 64.723,170.200 64.732 C 170.640 64.738,171.360 64.589,171.800 64.400 C 172.819 63.962,171.768 63.962,170.400 64.400 M167.000 65.200 C 166.496 65.417,166.422 65.544,166.800 65.544 C 167.130 65.544,167.760 65.389,168.200 65.200 C 168.704 64.983,168.778 64.856,168.400 64.856 C 168.070 64.856,167.440 65.011,167.000 65.200 M235.200 65.982 C 235.530 66.205,236.145 66.391,236.567 66.394 C 237.590 66.402,237.271 66.173,235.800 65.844 C 234.924 65.648,234.762 65.685,235.200 65.982 M238.833 66.944 C 238.925 67.023,239.540 67.208,240.200 67.356 C 241.076 67.552,241.238 67.515,240.800 67.218 C 240.260 66.853,238.432 66.598,238.833 66.944 M131.100 79.429 C 129.605 80.240,129.696 80.578,131.200 79.800 C 131.860 79.459,132.400 79.094,132.400 78.990 C 132.400 78.732,132.357 78.747,131.100 79.429 M127.100 81.829 C 125.605 82.640,125.696 82.978,127.200 82.200 C 127.860 81.859,128.400 81.494,128.400 81.390 C 128.400 81.132,128.357 81.147,127.100 81.829 M120.522 86.229 L 119.400 87.258 120.700 86.354 C 121.415 85.857,122.000 85.393,122.000 85.325 C 122.000 85.009,121.558 85.280,120.522 86.229 M278.800 85.746 C 278.800 85.856,279.340 86.330,280.000 86.800 C 280.660 87.270,281.200 87.564,281.200 87.454 C 281.200 87.344,280.660 86.870,280.000 86.400 C 279.340 85.930,278.800 85.636,278.800 85.746 M109.375 94.900 L 108.200 96.200 109.500 95.025 C 110.712 93.930,110.984 93.600,110.675 93.600 C 110.606 93.600,110.021 94.185,109.375 94.900 M105.381 98.500 L 103.800 100.200 105.500 98.619 C 106.435 97.749,107.200 96.984,107.200 96.919 C 107.200 96.616,106.852 96.919,105.381 98.500 M298.000 101.800 C 298.746 102.570,299.447 103.200,299.557 103.200 C 299.667 103.200,299.146 102.570,298.400 101.800 C 297.654 101.030,296.953 100.400,296.843 100.400 C 296.733 100.400,297.254 101.030,298.000 101.800 M96.975 106.900 L 95.800 108.200 97.100 107.025 C 97.815 106.379,98.400 105.794,98.400 105.725 C 98.400 105.416,98.070 105.688,96.975 106.900 M301.600 105.725 C 301.600 105.794,302.185 106.379,302.900 107.025 L 304.200 108.200 303.025 106.900 C 301.930 105.688,301.600 105.416,301.600 105.725 M305.634 110.247 C 306.165 110.933,306.680 111.423,306.779 111.335 C 306.877 111.247,306.443 110.686,305.813 110.088 L 304.669 109.000 305.634 110.247 M84.646 122.200 C 84.291 122.750,83.709 123.695,83.353 124.300 L 82.705 125.400 83.510 124.426 C 84.460 123.276,85.721 121.200,85.469 121.200 C 85.371 121.200,85.001 121.650,84.646 122.200 M317.149 125.800 C 317.365 126.240,317.834 126.960,318.193 127.400 L 318.844 128.200 318.451 127.400 C 318.235 126.960,317.766 126.240,317.407 125.800 L 316.756 125.000 317.149 125.800 M319.400 129.600 C 319.741 130.260,320.111 130.800,320.221 130.800 C 320.331 130.800,320.141 130.260,319.800 129.600 C 319.459 128.940,319.089 128.400,318.979 128.400 C 318.869 128.400,319.059 128.940,319.400 129.600 M177.233 150.100 C 177.325 150.155,177.940 150.650,178.600 151.200 L 179.800 152.200 178.830 151.100 C 178.297 150.495,177.682 150.000,177.464 150.000 C 177.245 150.000,177.142 150.045,177.233 150.100 M62.629 175.829 C 62.481 176.415,62.438 176.972,62.532 177.066 C 62.627 177.160,62.824 176.758,62.971 176.171 C 63.119 175.585,63.162 175.028,63.068 174.934 C 62.973 174.840,62.776 175.242,62.629 175.829 M336.893 178.400 C 336.893 179.170,336.975 179.485,337.076 179.100 C 337.176 178.715,337.176 178.085,337.076 177.700 C 336.975 177.315,336.893 177.630,336.893 178.400 M61.856 180.884 C 61.721 181.388,61.627 182.160,61.646 182.600 C 61.665 183.040,61.845 182.698,62.046 181.840 C 62.436 180.178,62.270 179.340,61.856 180.884 M214.800 180.118 C 214.800 180.220,215.647 180.997,216.681 181.845 C 217.716 182.693,218.434 183.178,218.276 182.923 C 217.940 182.379,214.800 179.845,214.800 180.118 M337.881 186.800 C 338.006 188.010,338.174 189.075,338.254 189.167 C 338.535 189.487,338.317 186.591,337.987 185.600 C 337.771 184.954,337.734 185.380,337.881 186.800 M116.800 186.800 L 61.800 187.004 116.676 187.102 C 152.935 187.167,171.637 187.064,171.800 186.800 C 171.936 186.580,171.992 186.444,171.924 186.498 C 171.856 186.552,147.050 186.688,116.800 186.800 M237.981 198.900 L 238.939 200.000 237.981 201.100 L 237.023 202.200 238.202 201.100 L 239.382 200.000 238.202 198.900 L 237.023 197.800 237.981 198.900 M338.520 200.000 C 338.520 201.210,338.595 201.705,338.687 201.100 C 338.778 200.495,338.778 199.505,338.687 198.900 C 338.595 198.295,338.520 198.790,338.520 200.000 M235.592 202.913 C 235.038 203.401,234.065 204.208,233.431 204.706 C 232.797 205.204,232.350 205.683,232.439 205.771 C 232.528 205.859,233.590 205.052,234.800 203.978 C 236.010 202.904,236.910 202.025,236.800 202.025 C 236.690 202.025,236.146 202.425,235.592 202.913 M338.060 211.650 C 338.027 212.228,337.911 213.308,337.801 214.050 L 337.603 215.400 338.024 214.057 C 338.255 213.319,338.372 212.239,338.282 211.657 L 338.120 210.600 338.060 211.650 M219.100 216.232 C 217.615 217.447,216.400 218.530,216.400 218.638 C 216.400 218.746,217.660 217.816,219.200 216.572 C 221.634 214.606,222.307 213.967,221.900 214.011 C 221.845 214.017,220.585 215.016,219.100 216.232 M61.606 217.033 C 61.609 217.455,61.795 218.070,62.018 218.400 C 62.315 218.838,62.352 218.676,62.156 217.800 C 61.827 216.329,61.598 216.010,61.606 217.033 M336.893 221.600 C 336.893 222.370,336.975 222.685,337.076 222.300 C 337.176 221.915,337.176 221.285,337.076 220.900 C 336.975 220.515,336.893 220.830,336.893 221.600 M62.456 222.000 C 62.456 222.330,62.611 222.960,62.800 223.400 C 63.017 223.904,63.144 223.978,63.144 223.600 C 63.144 223.270,62.989 222.640,62.800 222.200 C 62.583 221.696,62.456 221.622,62.456 222.000 M65.044 233.800 C 65.373 235.271,65.602 235.590,65.594 234.567 C 65.591 234.145,65.405 233.530,65.182 233.200 C 64.885 232.762,64.848 232.924,65.044 233.800 M334.454 233.467 C 334.425 233.944,334.296 234.664,334.170 235.067 C 333.952 235.761,333.964 235.762,334.396 235.088 C 334.647 234.697,334.775 233.977,334.681 233.488 C 334.509 232.601,334.509 232.601,334.454 233.467 M195.246 235.421 C 194.281 236.179,193.651 236.797,193.846 236.794 C 194.041 236.791,194.920 236.168,195.800 235.409 C 197.864 233.630,197.513 233.637,195.246 235.421 M333.646 236.467 C 333.621 236.834,333.496 237.464,333.370 237.867 C 333.152 238.562,333.163 238.563,333.597 237.887 C 333.848 237.496,333.973 236.866,333.873 236.487 C 333.711 235.868,333.688 235.866,333.646 236.467 M318.153 272.500 C 316.776 274.836,316.686 275.035,317.387 274.200 C 318.200 273.232,318.900 272.000,318.638 272.000 C 318.533 272.000,318.315 272.225,318.153 272.500 M84.185 276.700 C 84.802 277.635,85.383 278.400,85.476 278.400 C 85.764 278.400,84.233 275.966,83.632 275.469 C 83.320 275.211,83.568 275.765,84.185 276.700 M305.800 289.600 C 305.168 290.260,304.819 290.790,305.025 290.778 C 305.378 290.757,307.439 288.400,307.105 288.400 C 307.020 288.400,306.432 288.940,305.800 289.600 M302.604 293.196 C 301.974 293.854,301.535 294.456,301.629 294.534 C 301.723 294.612,302.313 294.074,302.939 293.338 C 304.354 291.677,304.145 291.588,302.604 293.196 M297.978 298.300 L 296.600 299.800 298.100 298.422 C 299.496 297.138,299.784 296.800,299.478 296.800 C 299.412 296.800,298.737 297.475,297.978 298.300 M105.600 301.725 C 105.600 301.794,106.185 302.379,106.900 303.025 L 108.200 304.200 107.025 302.900 C 105.930 301.688,105.600 301.416,105.600 301.725 M292.975 302.900 L 291.800 304.200 293.198 303.000 C 293.967 302.340,294.672 301.755,294.765 301.700 C 294.857 301.645,294.757 301.600,294.542 301.600 C 294.326 301.600,293.621 302.185,292.975 302.900 M109.222 305.100 C 109.234 305.265,109.819 305.838,110.522 306.374 L 111.800 307.349 110.625 306.074 C 109.403 304.749,109.185 304.597,109.222 305.100 M289.243 306.023 C 288.717 306.461,288.357 306.890,288.443 306.976 C 288.530 307.062,289.105 306.697,289.722 306.166 C 290.340 305.635,290.700 305.206,290.522 305.213 C 290.345 305.221,289.770 305.585,289.243 306.023 M117.233 311.730 C 117.325 311.801,118.030 312.266,118.800 312.763 L 120.200 313.666 119.000 312.635 C 118.340 312.068,117.635 311.603,117.433 311.602 C 117.232 311.601,117.142 311.658,117.233 311.730 M273.300 317.646 C 271.937 318.519,271.495 319.106,272.700 318.443 C 273.618 317.939,275.056 316.827,274.800 316.819 C 274.690 316.816,274.015 317.188,273.300 317.646 M130.000 320.020 C 131.387 320.961,132.178 321.235,131.200 320.436 C 130.650 319.986,130.020 319.617,129.800 319.615 C 129.580 319.613,129.670 319.796,130.000 320.020 M268.800 320.436 C 268.136 320.979,268.069 321.115,268.600 320.840 C 269.905 320.166,270.628 319.612,270.200 319.615 C 269.980 319.617,269.350 319.986,268.800 320.436 M236.800 333.600 C 235.976 333.864,235.941 333.926,236.600 333.954 C 237.040 333.973,237.670 333.813,238.000 333.600 C 238.701 333.147,238.214 333.147,236.800 333.600 M233.800 334.400 C 232.693 334.682,232.677 334.709,233.600 334.747 C 234.150 334.769,234.870 334.613,235.200 334.400 C 235.881 333.960,235.529 333.960,233.800 334.400 M178.600 337.200 C 180.292 337.631,181.744 337.631,180.400 337.200 C 179.850 337.024,178.950 336.883,178.400 336.887 C 177.502 336.894,177.522 336.926,178.600 337.200 M220.900 337.076 C 221.285 337.176,221.915 337.176,222.300 337.076 C 222.685 336.975,222.370 336.893,221.600 336.893 C 220.830 336.893,220.515 336.975,220.900 337.076 M185.600 337.987 C 186.591 338.317,189.487 338.535,189.167 338.254 C 189.075 338.174,188.010 338.006,186.800 337.881 C 185.380 337.734,184.954 337.771,185.600 337.987 M212.200 338.000 L 210.600 338.286 212.000 338.303 C 212.770 338.313,213.850 338.176,214.400 338.000 C 215.685 337.588,214.499 337.588,212.200 338.000 M198.905 338.687 C 199.514 338.779,200.414 338.777,200.905 338.682 C 201.397 338.587,200.900 338.511,199.800 338.514 C 198.700 338.517,198.297 338.595,198.905 338.687 " stroke="none" fill="#3cc4fc" fill-rule="evenodd"></path></g></svg>